<?xml version="1.0" encoding="utf-8"?><svg xmlns="http://www.w3.org/2000/svg" xmlns:xlink="http://www.w3.org/1999/xlink"><symbol viewBox="0 0 491.996 491.996" id="arrow_dwn" xmlns="http://www.w3.org/2000/svg"><path d="M484.132 124.986l-16.116-16.228c-5.072-5.068-11.82-7.86-19.032-7.86-7.208 0-13.964 2.792-19.036 7.86l-183.84 183.848L62.056 108.554c-5.064-5.068-11.82-7.856-19.028-7.856s-13.968 2.788-19.036 7.856l-16.12 16.128c-10.496 10.488-10.496 27.572 0 38.06l219.136 219.924c5.064 5.064 11.812 8.632 19.084 8.632h.084c7.212 0 13.96-3.572 19.024-8.632l218.932-219.328c5.072-5.064 7.856-12.016 7.864-19.224 0-7.212-2.792-14.068-7.864-19.128z"/></symbol><symbol viewBox="0 0 18 19.994" id="basket" xmlns="http://www.w3.org/2000/svg"><path d="M18 4.567h-1.602l-1.25 14.712a.767.767 0 01-.753.715H3.58a.766.766 0 01-.753-.714L1.577 4.568H0V3.002h5.269V1.305C5.269.585 5.835 0 6.53 0h4.941c.695 0 1.26.586 1.26 1.305v1.697H18v1.565zm-6.782-3.001H6.781v1.436h4.437V1.566zM3.095 4.567l1.178 13.86h9.43l1.178-13.86H3.095zm7.746 11.535l.328-9.266 1.512.057-.328 9.266-1.512-.057zM8.244 6.864h1.513v9.266H8.244V6.864zm-2.925.029l1.512-.057.328 9.266-1.512.057-.328-9.266z"/></symbol><symbol viewBox="0 0 405.272 405.272" id="check" xmlns="http://www.w3.org/2000/svg"><path d="M393.401 124.425L179.603 338.208c-15.832 15.835-41.514 15.835-57.361 0L11.878 227.836c-15.838-15.835-15.838-41.52 0-57.358 15.841-15.841 41.521-15.841 57.355-.006l81.698 81.699L336.037 67.064c15.841-15.841 41.523-15.829 57.358 0 15.835 15.838 15.835 41.514.006 57.361z"/></symbol><symbol viewBox="0 0 14.964 14.964" id="close" xmlns="http://www.w3.org/2000/svg"><path d="M1.707.293A1 1 0 00.293 1.707l5.775 5.775-5.775 5.775a1 1 0 101.414 1.414l5.775-5.775 5.775 5.775a1 1 0 001.414-1.414L8.896 7.482l5.775-5.775A1 1 0 1013.257.293L7.482 6.068 1.707.293z"/></symbol><symbol viewBox="0 0 488.85 488.85" id="eye" xmlns="http://www.w3.org/2000/svg"><path d="M244.425 98.725c-93.4 0-178.1 51.1-240.6 134.1-5.1 6.8-5.1 16.3 0 23.1 62.5 83.1 147.2 134.2 240.6 134.2s178.1-51.1 240.6-134.1c5.1-6.8 5.1-16.3 0-23.1-62.5-83.1-147.2-134.2-240.6-134.2zm6.7 248.3c-62 3.9-113.2-47.2-109.3-109.3 3.2-51.2 44.7-92.7 95.9-95.9 62-3.9 113.2 47.2 109.3 109.3-3.3 51.1-44.8 92.6-95.9 95.9zm-3.1-47.4c-33.4 2.1-61-25.4-58.8-58.8 1.7-27.6 24.1-49.9 51.7-51.7 33.4-2.1 61 25.4 58.8 58.8-1.8 27.7-24.2 50-51.7 51.7z"/></symbol><symbol viewBox="0 0 20 18" id="filter" xmlns="http://www.w3.org/2000/svg"><path d="M4 8.17V1a1 1 0 10-2 0v7.17a3.001 3.001 0 000 5.66V17a1 1 0 102 0v-3.17a3.001 3.001 0 000-5.66zM3 10a1 1 0 100 2 1 1 0 000-2zm14 8a1 1 0 01-1-1v-2c0-.057.005-.112.014-.166a3.001 3.001 0 010-5.668A1.008 1.008 0 0116 9V1a1 1 0 112 0v8c0 .056-.005.112-.014.166a3.001 3.001 0 010 5.668c.01.054.014.11.014.166v2a1 1 0 01-1 1zm-1-6a1 1 0 112 0 1 1 0 01-2 0zM7 6c0-1.306.835-2.417 2-2.83V1a1 1 0 112 0v2.17a3.001 3.001 0 01-.014 5.664c.01.054.014.11.014.166v8a1 1 0 11-2 0V9c0-.056.005-.112.014-.166A3.001 3.001 0 017 6zm2 0a1 1 0 112 0 1 1 0 01-2 0z"/></symbol><symbol viewBox="0 0 518.462 472.822" id="filtering" xmlns="http://www.w3.org/2000/svg"><path d="M518.462 0H0l193.159 203.495-.014 269.327 132.173-68.37-.014-200.957L518.462 0zM212.837 440.466l.014-244.827L45.846 19.692h426.769L305.611 195.639l.014 196.832-92.788 47.995z"/></symbol><symbol viewBox="0 0 472.615 446.8" id="filtering_active" xmlns="http://www.w3.org/2000/svg"><path d="M180.066 446.8l112.484-58.183-.016-198.896L472.615 0H0l180.081 189.721z"/></symbol><symbol viewBox="0 0 416.979 416.979" id="info" xmlns="http://www.w3.org/2000/svg"><path d="M356.004 61.156c-81.37-81.47-213.377-81.551-294.848-.182-81.47 81.371-81.552 213.379-.181 294.85 81.369 81.47 213.378 81.551 294.849.181 81.469-81.369 81.551-213.379.18-294.849zM237.6 340.786a5.821 5.821 0 01-5.822 5.822h-46.576a5.821 5.821 0 01-5.822-5.822V167.885a5.821 5.821 0 015.822-5.822h46.576a5.82 5.82 0 015.822 5.822v172.901zm-29.11-202.885c-18.618 0-33.766-15.146-33.766-33.765 0-18.617 15.147-33.766 33.766-33.766s33.766 15.148 33.766 33.766c0 18.619-15.149 33.765-33.766 33.765z"/></symbol><symbol viewBox="0 0 18.999 19.012" id="pen" xmlns="http://www.w3.org/2000/svg"><path d="M18.777 5.213L6.473 17.55a.757.757 0 01-.36.202L.934 18.991a.75.75 0 01-.712-.201.756.756 0 01-.2-.712l1.237-5.183a.765.765 0 01.202-.36L13.79.222a.757.757 0 011.071 0l3.916 3.918a.76.76 0 01.001 1.073zM14.28 7.576l-.89-.891L5 15.08l.9.899 8.38-8.403zm-9.898 9.031l-1.978-1.98-.62 2.601 2.598-.621zm7.047-11.884L3.03 13.11l.898.898 8.39-8.395-.889-.89zm2.896-2.892l-1.823 1.82 2.85 2.851 1.818-1.824-2.845-2.847z"/></symbol><symbol viewBox="0 0 56.966 56.966" id="search" xmlns="http://www.w3.org/2000/svg"><path d="M55.146 51.887L41.588 37.786A22.926 22.926 0 0046.984 23c0-12.682-10.318-23-23-23s-23 10.318-23 23 10.318 23 23 23c4.761 0 9.298-1.436 13.177-4.162l13.661 14.208c.571.593 1.339.92 2.162.92.779 0 1.518-.297 2.079-.837a3.004 3.004 0 00.083-4.242zM23.984 6c9.374 0 17 7.626 17 17s-7.626 17-17 17-17-7.626-17-17 7.626-17 17-17z"/></symbol></svg>