<svg width="13" height="13" viewBox="0 0 13 13" xmlns="http://www.w3.org/2000/svg">
<path d="M10.875 0.875H2.125C1.4375 0.875 0.875 1.4375 0.875 2.125V10.875C0.875 11.5625 1.4375 12.125 2.125 12.125H10.875C11.5625 12.125 12.125 11.5625 12.125 10.875V2.125C12.125 1.4375 11.5625 0.875 10.875 0.875ZM10.875 10.875H2.125V8.0125L2.74375 8.63125L5.24375 6.13125L7.74375 8.63125L10.2437 6.1375L10.875 6.76875V10.875ZM10.875 4.99375L10.2437 4.3625L7.74375 6.86875L5.24375 4.36875L2.74375 6.86875L2.125 6.24375V2.125H10.875V4.99375Z"/>
</svg>
